<svg preserveAspectRatio="none" width="100%" height="100%" overflow="visible" viewBox="0 0 32 32" fill="none" xmlns="http://www.w3.org/2000/svg">
<path d="M29.7048 2.28782C27.4803 0.0633257 23.9528 -0.564301 19.7661 0.51617C15.6745 1.57281 11.4162 4.15482 7.78552 7.79346C4.15482 11.4242 1.57281 15.6745 0.51617 19.7661C-0.564301 23.945 0.0633256 27.4723 2.28782 29.7048C4.51232 31.9373 5.91853 31.9928 8.43698 31.9928C10.9554 31.9928 10.8839 31.8181 12.2266 31.4765C16.3181 30.4198 20.5763 27.8378 24.207 24.1992C27.8378 20.5685 30.4198 16.3101 31.4843 12.2186C32.5648 8.03974 31.9373 4.51232 29.7128 2.27989L29.7048 2.28782ZM30.5787 11.9962C29.5618 15.9288 27.0672 20.0362 23.5477 23.5477C20.0282 27.0592 15.9288 29.5618 11.9962 30.5787C8.15098 31.5718 4.93339 31.0315 2.95517 29.0454C0.969015 27.0592 0.428779 23.8496 1.42186 20.0043C2.43877 16.0718 4.93339 11.9644 8.45287 8.45286C11.9724 4.94134 16.0718 2.43877 20.0043 1.42186C21.2597 1.09613 22.4514 0.937237 23.5557 0.937237C25.8198 0.937237 27.7107 1.62048 29.0454 2.95517C31.0315 4.94134 31.5718 8.15098 30.5787 11.9962Z" fill="currentColor"/>
<path d="M23.832 10.6329L23.2123 9.98162L22.5608 9.29854L18.4853 13.1745L16.3958 7.95626L14.6878 8.63931L16.7773 13.8576H11.1525V11.4987H9.30938V22.6501H11.1525V15.7003H16.8805L15.1407 21.1568L15.9987 21.4269L16.9043 21.7208L18.676 16.1213L23.832 18.933L24.261 18.1387L24.7138 17.3126L19.6928 14.5724L23.832 10.6329Z" fill="currentColor"/>
</svg>
